<mxfile host="app.diagrams.net" modified="2021-03-07T15:47:40.587Z" agent="5.0 (Windows NT 10.0; Win64; x64) AppleWebKit/537.36 (KHTML, like Gecko) Chrome/87.0.4280.141 Safari/537.36 OPR/73.0.3856.408" etag="q-58RFdojG9YPkcwDhh8" version="14.4.4" type="github">
  <diagram id="otsH088z5NqMIMm8jVSL" name="Page-1">
    <mxGraphModel dx="1381" dy="764" grid="1" gridSize="10" guides="1" tooltips="1" connect="1" arrows="1" fold="1" page="1" pageScale="1" pageWidth="1169" pageHeight="827" math="0" shadow="0">
      <root>
        <mxCell id="0" />
        <mxCell id="1" parent="0" />
        <mxCell id="ngMwatECx-YCCXua9G_S-3" value="Image sensor" style="rounded=0;whiteSpace=wrap;html=1;fillColor=#dae8fc;strokeColor=#6c8ebf;" vertex="1" parent="1">
          <mxGeometry x="200" y="394" width="80" height="80" as="geometry" />
        </mxCell>
        <mxCell id="ngMwatECx-YCCXua9G_S-4" value="Video codec" style="rounded=0;whiteSpace=wrap;html=1;fillColor=#B2C9AB;strokeColor=#788AA3;fontColor=#46495D;" vertex="1" parent="1">
          <mxGeometry x="385" y="394" width="80" height="80" as="geometry" />
        </mxCell>
        <mxCell id="ngMwatECx-YCCXua9G_S-6" value="FPGA" style="rounded=0;whiteSpace=wrap;html=1;fillColor=#B2C9AB;strokeColor=#788AA3;fontColor=#46495D;" vertex="1" parent="1">
          <mxGeometry x="535" y="394" width="160" height="80" as="geometry" />
        </mxCell>
        <mxCell id="ngMwatECx-YCCXua9G_S-7" value="ПЗУ" style="rounded=0;whiteSpace=wrap;html=1;fillColor=#cce5ff;strokeColor=#36393d;" vertex="1" parent="1">
          <mxGeometry x="555" y="254" width="120" height="60" as="geometry" />
        </mxCell>
        <mxCell id="ngMwatECx-YCCXua9G_S-8" value="Video memory" style="rounded=0;whiteSpace=wrap;html=1;fillColor=#cce5ff;strokeColor=#36393d;" vertex="1" parent="1">
          <mxGeometry x="555" y="554" width="120" height="60" as="geometry" />
        </mxCell>
        <mxCell id="ngMwatECx-YCCXua9G_S-9" value="&amp;nbsp;USB interface" style="rounded=0;whiteSpace=wrap;html=1;fillColor=#fff2cc;strokeColor=#d6b656;" vertex="1" parent="1">
          <mxGeometry x="840" y="404" width="120" height="60" as="geometry" />
        </mxCell>
        <mxCell id="ngMwatECx-YCCXua9G_S-11" style="edgeStyle=orthogonalEdgeStyle;rounded=0;orthogonalLoop=1;jettySize=auto;html=1;exitX=0.5;exitY=1;exitDx=0;exitDy=0;strokeColor=#788AA3;fontColor=#46495D;" edge="1" parent="1" source="ngMwatECx-YCCXua9G_S-9" target="ngMwatECx-YCCXua9G_S-9">
          <mxGeometry relative="1" as="geometry" />
        </mxCell>
        <mxCell id="ngMwatECx-YCCXua9G_S-12" value="HDMI interface" style="rounded=0;whiteSpace=wrap;html=1;fillColor=#fff2cc;strokeColor=#d6b656;" vertex="1" parent="1">
          <mxGeometry x="840" y="324" width="120" height="60" as="geometry" />
        </mxCell>
        <mxCell id="ngMwatECx-YCCXua9G_S-13" value="Wireless interface" style="rounded=0;whiteSpace=wrap;html=1;fillColor=#fff2cc;strokeColor=#d6b656;" vertex="1" parent="1">
          <mxGeometry x="840" y="484" width="120" height="60" as="geometry" />
        </mxCell>
        <mxCell id="ngMwatECx-YCCXua9G_S-15" value="" style="endArrow=classic;html=1;exitX=1;exitY=0.5;exitDx=0;exitDy=0;entryX=0;entryY=0.5;entryDx=0;entryDy=0;strokeColor=#788AA3;fontColor=#46495D;" edge="1" parent="1" source="ngMwatECx-YCCXua9G_S-3" target="ngMwatECx-YCCXua9G_S-4">
          <mxGeometry width="50" height="50" relative="1" as="geometry">
            <mxPoint x="395" y="534" as="sourcePoint" />
            <mxPoint x="325" y="394" as="targetPoint" />
            <Array as="points">
              <mxPoint x="315" y="434" />
            </Array>
          </mxGeometry>
        </mxCell>
        <mxCell id="ngMwatECx-YCCXua9G_S-16" value="data" style="text;html=1;align=center;verticalAlign=middle;resizable=0;points=[];autosize=1;fontColor=#46495D;" vertex="1" parent="1">
          <mxGeometry x="305" y="414" width="40" height="20" as="geometry" />
        </mxCell>
        <mxCell id="ngMwatECx-YCCXua9G_S-18" value="Image sensor interface" style="text;html=1;align=center;verticalAlign=middle;resizable=0;points=[];autosize=1;fontColor=#46495D;" vertex="1" parent="1">
          <mxGeometry x="375" y="494" width="140" height="20" as="geometry" />
        </mxCell>
        <mxCell id="ngMwatECx-YCCXua9G_S-19" value="" style="endArrow=classic;startArrow=classic;html=1;entryX=0.5;entryY=1;entryDx=0;entryDy=0;exitX=0.5;exitY=0;exitDx=0;exitDy=0;strokeColor=#788AA3;fontColor=#46495D;" edge="1" parent="1" source="ngMwatECx-YCCXua9G_S-8" target="ngMwatECx-YCCXua9G_S-6">
          <mxGeometry width="50" height="50" relative="1" as="geometry">
            <mxPoint x="615" y="514" as="sourcePoint" />
            <mxPoint x="665" y="464" as="targetPoint" />
          </mxGeometry>
        </mxCell>
        <mxCell id="ngMwatECx-YCCXua9G_S-21" value="" style="endArrow=classic;startArrow=classic;html=1;entryX=0;entryY=0.75;entryDx=0;entryDy=0;exitX=1;exitY=0.75;exitDx=0;exitDy=0;strokeColor=#788AA3;fontColor=#46495D;" edge="1" parent="1" source="ngMwatECx-YCCXua9G_S-3" target="ngMwatECx-YCCXua9G_S-6">
          <mxGeometry width="50" height="50" relative="1" as="geometry">
            <mxPoint x="335" y="484" as="sourcePoint" />
            <mxPoint x="435" y="499" as="targetPoint" />
            <Array as="points">
              <mxPoint x="375" y="454" />
              <mxPoint x="375" y="484" />
              <mxPoint x="375" y="514" />
              <mxPoint x="465" y="514" />
              <mxPoint x="515" y="514" />
              <mxPoint x="515" y="484" />
              <mxPoint x="515" y="454" />
            </Array>
          </mxGeometry>
        </mxCell>
        <mxCell id="ngMwatECx-YCCXua9G_S-23" value="" style="endArrow=classic;html=1;entryX=0;entryY=0.5;entryDx=0;entryDy=0;exitX=1;exitY=0.5;exitDx=0;exitDy=0;strokeColor=#788AA3;fontColor=#46495D;" edge="1" parent="1" source="ngMwatECx-YCCXua9G_S-4" target="ngMwatECx-YCCXua9G_S-6">
          <mxGeometry width="50" height="50" relative="1" as="geometry">
            <mxPoint x="385" y="364" as="sourcePoint" />
            <mxPoint x="435" y="314" as="targetPoint" />
          </mxGeometry>
        </mxCell>
        <mxCell id="ngMwatECx-YCCXua9G_S-24" value="codec data" style="text;html=1;align=center;verticalAlign=middle;resizable=0;points=[];autosize=1;fontColor=#46495D;" vertex="1" parent="1">
          <mxGeometry x="465" y="414" width="70" height="20" as="geometry" />
        </mxCell>
        <mxCell id="ngMwatECx-YCCXua9G_S-26" value="" style="endArrow=classic;startArrow=classic;html=1;exitX=1;exitY=0.25;exitDx=0;exitDy=0;entryX=0;entryY=0.25;entryDx=0;entryDy=0;strokeColor=#788AA3;fontColor=#46495D;" edge="1" parent="1" source="ngMwatECx-YCCXua9G_S-4" target="ngMwatECx-YCCXua9G_S-6">
          <mxGeometry width="50" height="50" relative="1" as="geometry">
            <mxPoint x="435" y="344" as="sourcePoint" />
            <mxPoint x="515" y="384" as="targetPoint" />
          </mxGeometry>
        </mxCell>
        <mxCell id="ngMwatECx-YCCXua9G_S-28" value="codec &lt;br&gt;interface" style="text;html=1;align=center;verticalAlign=middle;resizable=0;points=[];autosize=1;fontColor=#46495D;" vertex="1" parent="1">
          <mxGeometry x="470" y="384" width="60" height="30" as="geometry" />
        </mxCell>
        <mxCell id="ngMwatECx-YCCXua9G_S-29" value="" style="endArrow=classic;startArrow=classic;html=1;entryX=0.5;entryY=1;entryDx=0;entryDy=0;exitX=0.5;exitY=0;exitDx=0;exitDy=0;strokeColor=#788AA3;fontColor=#46495D;" edge="1" parent="1" source="ngMwatECx-YCCXua9G_S-6" target="ngMwatECx-YCCXua9G_S-7">
          <mxGeometry width="50" height="50" relative="1" as="geometry">
            <mxPoint x="685" y="374" as="sourcePoint" />
            <mxPoint x="735" y="324" as="targetPoint" />
          </mxGeometry>
        </mxCell>
        <mxCell id="ngMwatECx-YCCXua9G_S-30" value="Program bitstream" style="text;html=1;align=center;verticalAlign=middle;resizable=0;points=[];autosize=1;fontColor=#46495D;" vertex="1" parent="1">
          <mxGeometry x="500" y="360" width="110" height="20" as="geometry" />
        </mxCell>
        <mxCell id="ngMwatECx-YCCXua9G_S-31" value="Memory&lt;br&gt;interface" style="text;html=1;strokeColor=none;fillColor=none;align=center;verticalAlign=middle;whiteSpace=wrap;rounded=0;fontColor=#46495D;" vertex="1" parent="1">
          <mxGeometry x="565" y="504" width="40" height="20" as="geometry" />
        </mxCell>
        <mxCell id="ngMwatECx-YCCXua9G_S-32" value="" style="endArrow=classic;startArrow=classic;html=1;entryX=0;entryY=0.5;entryDx=0;entryDy=0;exitX=1;exitY=0.25;exitDx=0;exitDy=0;strokeColor=#788AA3;fontColor=#46495D;" edge="1" parent="1" source="ngMwatECx-YCCXua9G_S-6" target="ngMwatECx-YCCXua9G_S-12">
          <mxGeometry width="50" height="50" relative="1" as="geometry">
            <mxPoint x="705" y="414" as="sourcePoint" />
            <mxPoint x="765" y="374" as="targetPoint" />
            <Array as="points">
              <mxPoint x="735" y="414" />
              <mxPoint x="735" y="354" />
            </Array>
          </mxGeometry>
        </mxCell>
        <mxCell id="ngMwatECx-YCCXua9G_S-33" value="" style="endArrow=classic;startArrow=classic;html=1;exitX=1;exitY=0.5;exitDx=0;exitDy=0;entryX=0;entryY=0.5;entryDx=0;entryDy=0;strokeColor=#788AA3;fontColor=#46495D;" edge="1" parent="1" source="ngMwatECx-YCCXua9G_S-6" target="ngMwatECx-YCCXua9G_S-9">
          <mxGeometry width="50" height="50" relative="1" as="geometry">
            <mxPoint x="735" y="544" as="sourcePoint" />
            <mxPoint x="785" y="494" as="targetPoint" />
          </mxGeometry>
        </mxCell>
        <mxCell id="ngMwatECx-YCCXua9G_S-34" value="" style="endArrow=classic;startArrow=classic;html=1;exitX=1;exitY=0.75;exitDx=0;exitDy=0;entryX=0;entryY=0.5;entryDx=0;entryDy=0;strokeColor=#788AA3;fontColor=#46495D;" edge="1" parent="1" source="ngMwatECx-YCCXua9G_S-6" target="ngMwatECx-YCCXua9G_S-13">
          <mxGeometry width="50" height="50" relative="1" as="geometry">
            <mxPoint x="695" y="594" as="sourcePoint" />
            <mxPoint x="755" y="594" as="targetPoint" />
            <Array as="points">
              <mxPoint x="735" y="454" />
              <mxPoint x="735" y="484" />
              <mxPoint x="735" y="514" />
            </Array>
          </mxGeometry>
        </mxCell>
        <mxCell id="ngMwatECx-YCCXua9G_S-37" value="" style="endArrow=none;dashed=1;html=1;fillColor=#B2C9AB;fontColor=#46495D;strokeColor=#B2C9AB;strokeWidth=3;" edge="1" parent="1">
          <mxGeometry width="50" height="50" relative="1" as="geometry">
            <mxPoint x="360" y="340" as="sourcePoint" />
            <mxPoint x="760" y="340" as="targetPoint" />
          </mxGeometry>
        </mxCell>
        <mxCell id="ngMwatECx-YCCXua9G_S-38" value="" style="endArrow=none;dashed=1;html=1;fillColor=#B2C9AB;fontColor=#46495D;strokeColor=#B2C9AB;strokeWidth=3;" edge="1" parent="1">
          <mxGeometry width="50" height="50" relative="1" as="geometry">
            <mxPoint x="360" y="340" as="sourcePoint" />
            <mxPoint x="360" y="540" as="targetPoint" />
          </mxGeometry>
        </mxCell>
        <mxCell id="ngMwatECx-YCCXua9G_S-39" value="" style="endArrow=none;dashed=1;html=1;fillColor=#B2C9AB;fontColor=#46495D;strokeColor=#B2C9AB;strokeWidth=3;" edge="1" parent="1">
          <mxGeometry width="50" height="50" relative="1" as="geometry">
            <mxPoint x="360" y="540" as="sourcePoint" />
            <mxPoint x="760" y="540" as="targetPoint" />
          </mxGeometry>
        </mxCell>
        <mxCell id="ngMwatECx-YCCXua9G_S-40" value="" style="endArrow=none;dashed=1;html=1;fillColor=#B2C9AB;fontColor=#46495D;strokeColor=#B2C9AB;strokeWidth=3;" edge="1" parent="1">
          <mxGeometry width="50" height="50" relative="1" as="geometry">
            <mxPoint x="760" y="540" as="sourcePoint" />
            <mxPoint x="760" y="340" as="targetPoint" />
          </mxGeometry>
        </mxCell>
        <mxCell id="ngMwatECx-YCCXua9G_S-41" value="Can be implemented on FPGA" style="text;html=1;strokeColor=#788AA3;fillColor=#B2C9AB;align=center;verticalAlign=middle;whiteSpace=wrap;rounded=0;fontColor=#46495D;" vertex="1" parent="1">
          <mxGeometry x="360" y="330" width="175" height="20" as="geometry" />
        </mxCell>
        <mxCell id="ngMwatECx-YCCXua9G_S-42" value="" style="shape=flexArrow;endArrow=classic;startArrow=classic;html=1;strokeColor=#d6b656;fillColor=#fff2cc;fontColor=#46495D;exitX=1;exitY=0.5;exitDx=0;exitDy=0;" edge="1" parent="1" source="ngMwatECx-YCCXua9G_S-12">
          <mxGeometry width="50" height="50" relative="1" as="geometry">
            <mxPoint x="520" y="370" as="sourcePoint" />
            <mxPoint x="1040" y="354" as="targetPoint" />
          </mxGeometry>
        </mxCell>
        <mxCell id="ngMwatECx-YCCXua9G_S-45" value="Display" style="edgeLabel;html=1;align=center;verticalAlign=middle;resizable=0;points=[];labelBorderColor=none;labelBackgroundColor=none;" vertex="1" connectable="0" parent="ngMwatECx-YCCXua9G_S-42">
          <mxGeometry x="0.65" y="-6" relative="1" as="geometry">
            <mxPoint x="-26" y="-6" as="offset" />
          </mxGeometry>
        </mxCell>
        <mxCell id="ngMwatECx-YCCXua9G_S-43" value="" style="shape=flexArrow;endArrow=classic;startArrow=classic;html=1;strokeColor=#d6b656;fillColor=#fff2cc;fontColor=#46495D;exitX=1;exitY=0.5;exitDx=0;exitDy=0;" edge="1" parent="1" source="ngMwatECx-YCCXua9G_S-9">
          <mxGeometry width="50" height="50" relative="1" as="geometry">
            <mxPoint x="970" y="364" as="sourcePoint" />
            <mxPoint x="1040" y="434" as="targetPoint" />
          </mxGeometry>
        </mxCell>
        <mxCell id="ngMwatECx-YCCXua9G_S-44" value="" style="shape=flexArrow;endArrow=classic;startArrow=classic;html=1;strokeColor=#d6b656;fillColor=#fff2cc;fontColor=#46495D;exitX=1;exitY=0.5;exitDx=0;exitDy=0;" edge="1" parent="1" source="ngMwatECx-YCCXua9G_S-13">
          <mxGeometry width="50" height="50" relative="1" as="geometry">
            <mxPoint x="980" y="374" as="sourcePoint" />
            <mxPoint x="1040" y="514" as="targetPoint" />
          </mxGeometry>
        </mxCell>
        <mxCell id="ngMwatECx-YCCXua9G_S-46" value="PC" style="edgeLabel;html=1;align=center;verticalAlign=middle;resizable=0;points=[];labelBorderColor=none;labelBackgroundColor=none;" vertex="1" connectable="0" parent="1">
          <mxGeometry x="999.9957142857143" y="434" as="geometry" />
        </mxCell>
        <mxCell id="ngMwatECx-YCCXua9G_S-47" value="On receiver" style="edgeLabel;html=1;align=center;verticalAlign=middle;resizable=0;points=[];labelBorderColor=none;labelBackgroundColor=none;" vertex="1" connectable="0" parent="1">
          <mxGeometry x="999.9957142857143" y="514" as="geometry" />
        </mxCell>
        <mxCell id="ngMwatECx-YCCXua9G_S-48" value="FPGA&amp;nbsp; - управляющий блок" style="text;html=1;strokeColor=#82b366;align=center;verticalAlign=middle;whiteSpace=wrap;rounded=0;labelBackgroundColor=none;sketch=0;fillColor=#B2C9AB;" vertex="1" parent="1">
          <mxGeometry x="120" y="100" width="280" height="40" as="geometry" />
        </mxCell>
        <mxCell id="ngMwatECx-YCCXua9G_S-50" value="Составные модули для обработки и обмена данных с управляющим блоком" style="text;html=1;strokeColor=#6c8ebf;align=center;verticalAlign=middle;whiteSpace=wrap;rounded=0;labelBackgroundColor=none;sketch=0;fillColor=#dae8fc;" vertex="1" parent="1">
          <mxGeometry x="120" y="140" width="280" height="40" as="geometry" />
        </mxCell>
        <mxCell id="ngMwatECx-YCCXua9G_S-51" value="Модули внешнего интерфейса для конфигурирования и передачи данных с управляющим блоком" style="text;html=1;strokeColor=#d6b656;align=center;verticalAlign=middle;whiteSpace=wrap;rounded=0;labelBackgroundColor=none;sketch=0;fillColor=#fff2cc;" vertex="1" parent="1">
          <mxGeometry x="120" y="180" width="280" height="40" as="geometry" />
        </mxCell>
      </root>
    </mxGraphModel>
  </diagram>
</mxfile>
